<svg width="77" height="62" viewBox="0 0 77 62" fill="none" xmlns="http://www.w3.org/2000/svg">
<path d="M75.372 24.7953H69.5416V18.6738C69.5416 16.0747 68.675 13.9714 66.9574 12.3638C65.2327 10.7578 62.4923 9.95472 58.7247 9.95472C54.9571 9.95472 52.0475 10.8875 49.9989 12.7622C47.956 14.6308 46.8507 17.4399 46.6888 21.1832H49.0016C49.1579 18.1456 50.1012 15.8786 51.8259 14.376C53.5449 12.8796 55.8038 12.1353 58.5982 12.1353C60.1794 12.1353 61.5191 12.3113 62.613 12.6588C63.7069 13.0109 64.5949 13.5004 65.2867 14.115C65.9715 14.7297 66.4829 15.4354 66.8068 16.2307C67.1307 17.0214 67.2941 17.8769 67.2941 18.805C67.2941 19.9941 67.233 20.9871 67.1066 21.7762C66.9873 22.5669 66.6804 23.2202 66.2002 23.7236C65.774 24.1699 65.1589 24.5235 64.3789 24.7953H34.7467L26.9543 0.783203H21.7149L12.705 24.7953H0V37.2191H8.04097L6.75243 40.6536L1.9932 42.0774V44.6981H17.0935V42.0002L11.6438 40.4266L12.7334 37.2191H30.7489L31.7803 40.805L27.2313 42.0774V44.6981H44.3276V42.0002L39.9165 40.7262L38.7771 37.2191H45.1133C45.3292 39.8181 46.2157 41.7979 47.7827 43.1507C49.6097 44.7105 52.1811 45.4949 55.504 45.4949C57 45.4949 58.3766 45.2911 59.6311 44.9004C60.8869 44.502 62.0107 43.9522 63.0094 43.2465C63.9996 42.5423 64.8421 41.7392 65.5268 40.8374C66.2173 39.9371 66.7457 38.975 67.1066 37.9635H67.233V39.7471C67.233 40.4529 67.2813 41.0984 67.3836 41.6929C67.4859 42.2875 67.6777 42.8094 67.9604 43.2465C68.2431 43.685 68.658 44.0371 69.2035 44.3059C69.7505 44.5668 70.4906 44.6981 71.4226 44.6981C72.0718 44.6981 72.7012 44.6132 73.3078 44.4356V42.3199C72.5762 42.4496 72.0107 42.5222 71.6073 42.5222C71.0788 42.5222 70.671 42.3987 70.3883 42.1562C70.1056 41.9153 69.901 41.5956 69.7817 41.1957C69.661 40.805 69.5899 40.3602 69.5714 39.8768C69.5473 39.3935 69.5416 38.9101 69.5416 38.4267V37.2191H76.2727V24.7953H75.372ZM22.3329 9.1764H22.6767L27.156 24.7953H16.9969L22.3329 9.1764ZM65.3464 38.192C64.5352 39.5371 63.3631 40.7262 61.8189 41.7593C60.2817 42.7971 58.1962 43.3129 55.5637 43.3129C53.0093 43.3129 51.0033 42.7044 49.5486 41.4968C48.3552 40.5054 47.6605 39.0769 47.4432 37.2191H65.882C65.72 37.5403 65.5453 37.8631 65.3464 38.192ZM75.372 36.24H0.902123V25.7759H75.372V36.24Z" fill="white"/>
<path d="M4.47773 32.8551H6.72664L7.01503 33.5654H7.69269L5.60147 28.4492L3.51025 33.5654H4.18933L4.47773 32.8551ZM5.60147 30.0398L6.47802 32.2296H4.72492L5.60147 30.0398Z" fill="white"/>
<path d="M11.1279 30.3101L12.4889 32.0876L13.8471 30.3101V33.5654H14.475V28.4492L12.4889 31.0637L10.5 28.4492V33.5654H11.1279V30.3101Z" fill="white"/>
<path d="M20.3156 32.1231C20.3156 31.5687 20.0344 31.0359 19.5513 30.8799C19.8525 30.6946 20.1068 30.3394 20.1068 29.8699C20.1068 29.0098 19.5115 28.5635 18.5185 28.5635H17.7002V33.5654H18.7856C19.7076 33.5654 20.3156 32.9832 20.3156 32.1231ZM18.3281 29.1874H18.6023C19.1521 29.1874 19.4789 29.4375 19.4789 29.8838C19.4789 30.3255 19.1521 30.6375 18.6023 30.6375H18.3281V29.1874ZM18.3281 32.94V31.2629H18.6947C19.2828 31.2629 19.6749 31.5625 19.6749 32.1292C19.6749 32.6914 19.2828 32.94 18.6947 32.94H18.3281Z" fill="white"/>
<path d="M23.9851 32.8551H26.234L26.5224 33.5654H27.2014L25.1102 28.4492L23.0176 33.5654H23.6981L23.9851 32.8551ZM25.1102 30.0398L25.9854 32.2296H24.2337L25.1102 30.0398Z" fill="white"/>
<path d="M31.3029 32.9971C30.7673 32.9971 30.4334 32.6064 30.1649 32.137L29.7998 32.6559C29.9433 32.9261 30.4007 33.6226 31.2901 33.6226C32.1979 33.6226 32.7278 32.8196 32.7278 32.0659C32.7278 31.1625 32.1524 30.7718 31.3753 30.4105C30.9434 30.2112 30.7403 29.9842 30.7403 29.6568C30.7403 29.365 31.0216 29.1318 31.3228 29.1318C31.6112 29.1318 31.8257 29.2522 32.0487 29.5225L32.4153 29.0175C32.1198 28.6839 31.8584 28.5063 31.3355 28.5063C30.6494 28.5063 30.1138 29.0453 30.1138 29.6429C30.1138 30.2885 30.3681 30.673 31.31 31.1208C31.7149 31.32 32.0999 31.5749 32.0999 32.0953C32.0999 32.5709 31.7731 32.9971 31.3029 32.9971Z" fill="white"/>
<path d="M37.0382 32.9971C36.5026 32.9971 36.1688 32.6064 35.9003 32.137L35.5352 32.6559C35.6786 32.9261 36.1361 33.6226 37.0254 33.6226C37.9332 33.6226 38.4632 32.8196 38.4632 32.0659C38.4632 31.1625 37.8878 30.7718 37.1107 30.4105C36.6788 30.2112 36.4756 29.9842 36.4756 29.6568C36.4756 29.365 36.7569 29.1318 37.0581 29.1318C37.3451 29.1318 37.561 29.2522 37.7827 29.5225L38.1506 29.0175C37.8551 28.6839 37.5937 28.5063 37.0709 28.5063C36.3847 28.5063 35.8477 29.0453 35.8477 29.6429C35.8477 30.2885 36.1034 30.673 37.0453 31.1208C37.4502 31.32 37.8352 31.5749 37.8352 32.0953C37.8352 32.5709 37.5085 32.9971 37.0382 32.9971Z" fill="white"/>
<path d="M41.924 32.8551H44.1729L44.4613 33.5654H45.139L43.0478 28.4492L40.9565 33.5654H41.6356L41.924 32.8551ZM43.0478 30.0398L43.9243 32.2296H42.1712L43.0478 30.0398Z" fill="white"/>
<path d="M51.1897 31.0637C51.1897 29.6785 50.3728 28.5635 48.8427 28.5635H47.9463V33.5654H48.8427C50.3401 33.5654 51.1897 32.4504 51.1897 31.0637ZM48.5742 29.1874H48.9408C49.8699 29.1874 50.5617 30.0259 50.5617 31.0637C50.5617 32.1014 49.8699 32.94 48.9408 32.94H48.5742V29.1874Z" fill="white"/>
<path d="M56.3492 33.6226C57.6505 33.6226 58.7032 32.4783 58.7032 31.0637C58.7032 29.6491 57.6505 28.5063 56.3492 28.5063C55.0479 28.5063 53.9966 29.6491 53.9966 31.0637C53.9966 32.4783 55.0479 33.6226 56.3492 33.6226ZM56.3492 29.1318C57.311 29.1318 58.0753 29.9904 58.0753 31.0637C58.0753 32.137 57.311 32.9971 56.3492 32.9971C55.3888 32.9971 54.6231 32.137 54.6231 31.0637C54.6231 29.9904 55.3888 29.1318 56.3492 29.1318Z" fill="white"/>
<path d="M62.2949 31.8604H62.5947L62.7453 31.8527L63.5494 33.5653H64.2824L63.3533 31.6828C63.8761 31.4048 64.1773 30.8427 64.1773 30.2111C64.1773 29.3092 63.6474 28.5618 62.5038 28.5618H61.667V33.5653H62.2949V31.8604ZM62.2949 29.1872H62.5762C63.0337 29.1872 63.5494 29.4868 63.5494 30.2111C63.5494 30.8659 63.072 31.2349 62.6146 31.2349H62.2949V29.1872Z" fill="white"/>
<path d="M69.3626 30.8109C69.3626 30.5081 69.212 30.2192 68.9478 30.1343C69.1111 30.0339 69.2504 29.8408 69.2504 29.5859C69.2504 29.1178 68.9265 28.8752 68.3866 28.8752H67.9434V31.5941H68.5315C69.033 31.5941 69.3626 31.2774 69.3626 30.8109ZM68.2829 29.2151H68.4321C68.7304 29.2151 68.908 29.3495 68.908 29.5936C68.908 29.833 68.7304 30.003 68.4321 30.003H68.2829V29.2151ZM68.2829 31.2543V30.3428H68.4818C68.8014 30.3428 69.016 30.505 69.016 30.814C69.016 31.1199 68.8014 31.2543 68.4818 31.2543H68.2829Z" fill="white"/>
<path d="M71.5687 31.5941H71.9097V30.4927L72.7621 28.8752H72.3785L71.7392 30.1219L71.0999 28.8752H70.7163L71.5687 30.4927V31.5941Z" fill="white"/>
<path d="M67.7202 33.5667H72.8645V33.1931H67.7202V33.5667Z" fill="white"/>
</svg>
