<svg width="1160" height="52" viewBox="0 0 1160 52" fill="none" xmlns="http://www.w3.org/2000/svg">
<path d="M844.789 48.1133L850.701 46.6677L846.403 33.5289H829.474L824.548 46.2346L831.626 48.0279V51.0961H812.013V48.1133L818.187 46.4908L837.621 1.1272H844.43L861.27 46.5762L866.996 48.0279V51.0961H844.789V48.1133ZM831.177 29.2652H844.968L838.877 10.6733H838.428L831.177 29.2652Z" fill="white"/>
<path d="M876.31 12.468H911.77V15.5362L904.877 17.5003V45.9799L911.68 48.0294V51.0976H890.28V48.0294L896.461 46.0653V16.9025H888.217C887.417 25.5153 886.251 34.1281 883.65 42.5702C881.863 48.371 878.635 51.7807 869.68 51.7807V43.9365L871.743 43.4241H878.545C881.146 35.4945 882.664 26.4547 883.291 17.5857L876.31 15.5362V12.468Z" fill="white"/>
<path d="M938.729 15.6214L931.92 17.5001V29.1811H938.55L942.847 19.8851C945.8 13.578 949.029 11.7847 954.217 11.7847C955.472 11.7847 957.086 12.0409 958.252 12.297L956.997 19.9705H955.024L948.76 18.3541L943.924 28.8395L953.954 45.4673L960.667 48.0292V51.0973H947.056L937.653 33.701H931.92V46.0712L937.922 48.0292V51.0973H916.605V48.1146L923.414 46.0712V17.5855L916.605 15.536V12.4678H938.729V15.6214Z" fill="white"/>
<path d="M982.522 51.7805C971.505 51.7805 963.62 46.5775 963.62 32.3346C963.62 20.7391 973.113 11.7847 983.233 11.7847C995.147 11.7847 1002.31 17.8417 1002.31 31.9137C1002.31 43.3385 992.995 51.7805 982.522 51.7805ZM982.432 15.8776C974.279 15.8776 972.844 23.4656 972.844 30.889C972.844 39.331 975.175 47.346 983.598 47.346C991.566 47.346 992.995 40.4411 992.995 32.9324C992.995 25.5151 991.387 15.8776 982.432 15.8776Z" fill="white"/>
<path d="M1021.79 51.0976H1018.78V14.9445H1003.39V12.4619H1037.18V14.9445H1021.79V51.0976Z" fill="white"/>
<path d="M1041.91 32.1576V32.6029C1041.91 34.8659 1042.23 37.0191 1042.86 39.0686C1043.49 41.1242 1044.43 42.9297 1045.67 44.4851C1046.91 46.0406 1048.46 47.2666 1050.34 48.1694C1052.21 49.0721 1054.39 49.5235 1056.87 49.5235C1060.94 49.5235 1064.15 48.5049 1066.53 46.4736C1068.9 44.4485 1070.54 41.6305 1071.43 38.0194H1074.43C1073.54 42.5271 1071.61 45.9857 1068.63 48.3951C1065.66 50.7984 1061.72 52 1056.83 52C1053.83 52 1051.21 51.4876 1048.98 50.4629C1046.74 49.432 1044.87 48.0291 1043.37 46.2541C1041.87 44.4729 1040.75 42.3685 1040.02 39.9408C1039.28 37.5071 1038.91 34.8842 1038.91 32.0783C1038.91 29.3761 1039.29 26.7837 1040.06 24.3012C1040.82 21.8186 1041.96 19.641 1043.49 17.7623C1045.02 15.8835 1046.92 14.3769 1049.21 13.2485C1051.5 12.12 1054.2 11.5588 1057.3 11.5588C1060.15 11.5588 1062.66 12.059 1064.84 13.0655C1067.03 14.0658 1068.85 15.4322 1070.33 17.1584C1071.81 18.8846 1072.92 20.8975 1073.68 23.1727C1074.44 25.454 1074.83 27.9 1074.83 30.5046C1074.83 30.7547 1074.81 31.0413 1074.79 31.3646C1074.76 31.694 1074.75 31.9563 1074.75 32.1576H1041.91ZM1071.75 29.675C1071.65 27.5706 1071.27 25.576 1070.64 23.6973C1070.01 21.8186 1069.07 20.1655 1067.83 18.7382C1066.59 17.3109 1065.09 16.1702 1063.32 15.3163C1061.55 14.4684 1059.53 14.0414 1057.27 14.0414C1054.84 14.0414 1052.7 14.4806 1050.86 15.359C1049.01 16.2312 1047.45 17.3841 1046.18 18.8114C1044.92 20.2387 1043.94 21.9101 1043.26 23.8132C1042.57 25.7163 1042.15 27.6682 1042 29.675H1071.75Z" fill="white"/>
<path d="M1084.46 12.4619H1087.46V33.5853L1112.48 12.4619H1116.82L1099.06 27.4916L1118.08 51.0976H1113.98L1096.7 29.6753L1087.46 37.117V51.0976H1084.46V12.4619Z" fill="white"/>
<path d="M1152.1 43.4299H1151.94C1151.47 44.5888 1150.79 45.6746 1149.89 46.6993C1149 47.7302 1147.91 48.6451 1146.62 49.4442C1145.33 50.2494 1143.87 50.8715 1142.24 51.3229C1140.6 51.7743 1138.82 52 1136.87 52C1132.55 52 1129.22 51.1094 1126.85 49.3344C1124.48 47.5533 1123.3 44.8084 1123.3 41.0998C1123.3 38.8429 1123.77 37.0069 1124.71 35.5734C1125.66 34.1461 1126.86 33.0238 1128.31 32.1942C1129.75 31.3707 1131.36 30.7791 1133.12 30.4253C1134.89 30.0776 1136.58 29.8275 1138.21 29.675L1142.87 29.2968C1145.02 29.1504 1146.72 28.9125 1147.96 28.5832C1149.19 28.2599 1150.13 27.8085 1150.76 27.2351C1151.4 26.6557 1151.79 25.9176 1151.94 25.0148C1152.1 24.1121 1152.19 22.9836 1152.19 21.6356C1152.19 20.5803 1151.97 19.6044 1151.55 18.7016C1151.13 17.7989 1150.48 16.9998 1149.58 16.2983C1148.68 15.5969 1147.52 15.0418 1146.11 14.6392C1144.69 14.2427 1142.95 14.0414 1140.9 14.0414C1137.26 14.0414 1134.33 14.8893 1132.09 16.5972C1129.86 18.299 1128.63 20.8792 1128.42 24.3378H1125.42C1125.64 20.0801 1127.07 16.8839 1129.73 14.7551C1132.39 12.6263 1136.16 11.5588 1141.05 11.5588C1145.95 11.5588 1149.51 12.4738 1151.75 14.3037C1153.99 16.1336 1155.11 18.5247 1155.11 21.4831V43.9545C1155.11 44.5095 1155.12 45.0585 1155.15 45.6136C1155.17 46.1626 1155.26 46.6627 1155.42 47.1141C1155.58 47.5655 1155.84 47.9315 1156.21 48.206C1156.57 48.4805 1157.11 48.6208 1157.79 48.6208C1158.31 48.6208 1159.05 48.5415 1160 48.3951V50.7984C1159.21 50.9996 1158.39 51.0972 1157.55 51.0972C1156.34 51.0972 1155.38 50.9508 1154.67 50.6459C1153.96 50.347 1153.42 49.9444 1153.05 49.4442C1152.69 48.944 1152.43 48.3585 1152.3 47.6814C1152.17 47.0043 1152.1 46.2602 1152.1 45.4611V43.4299ZM1152.1 29.1504C1151.37 30.0044 1150.25 30.5778 1148.75 30.8767C1147.25 31.1816 1145.58 31.4012 1143.74 31.5537L1138.68 32.0051C1137.21 32.1576 1135.74 32.3711 1134.27 32.6456C1132.79 32.9201 1131.46 33.3836 1130.28 34.0363C1129.09 34.689 1128.13 35.5734 1127.4 36.7019C1126.66 37.8303 1126.29 39.2943 1126.29 41.0998C1126.29 43.9545 1127.24 46.0772 1129.13 47.4496C1131.03 48.8342 1133.64 49.5174 1136.95 49.5174C1140.37 49.5174 1143.08 48.9318 1145.08 47.7546C1147.08 46.5773 1148.61 45.2232 1149.66 43.6922C1150.71 42.1672 1151.38 40.685 1151.67 39.2577C1151.96 37.8303 1152.1 36.8666 1152.1 36.3664V29.1504Z" fill="white"/>
<path d="M10.9274 43.5886H36.3245L39.5784 50.6216H47.2519L23.6228 0L0 50.6216H7.67996L10.9274 43.5886ZM23.6228 15.7434L33.519 37.4035H13.733L23.6228 15.7434Z" fill="white"/>
<path d="M86.0424 18.4212L101.396 36.0006L116.749 18.4212V50.6216H123.84V0L101.396 25.875L78.9453 0V50.6216H86.0424V18.4212Z" fill="white"/>
<path d="M189.789 36.347C189.789 30.8633 186.612 25.5932 181.149 24.0438C184.55 22.2139 187.426 18.7005 187.426 14.0586C187.426 5.55559 180.707 1.1272 169.491 1.1272H160.254V50.6203H172.514C182.923 50.6203 189.789 44.8561 189.789 36.347ZM167.351 7.31231H170.445C176.646 7.31231 180.341 9.77049 180.341 14.1989C180.341 18.5602 176.646 21.6527 170.445 21.6527H167.351V7.31231ZM167.351 44.4352V27.8379H171.483C178.125 27.8379 182.558 30.7962 182.558 36.4202C182.558 41.9709 178.125 44.4352 171.483 44.4352H167.351Z" fill="white"/>
<path d="M231.231 43.5886H256.628L259.882 50.6216H267.556L243.926 0L220.304 50.6216H227.984L231.231 43.5886ZM243.926 15.7434L253.823 37.4035H234.03L243.926 15.7434Z" fill="white"/>
<path d="M313.873 44.9953C307.82 44.9953 304.047 41.1281 301.03 36.4862L296.892 41.6222C298.513 44.2938 303.682 51.1804 313.725 51.1804C323.98 51.1804 329.969 43.2325 329.969 35.7847C329.969 26.8547 323.468 22.9875 314.686 19.4009C309.805 17.4307 307.525 15.1799 307.525 11.947C307.525 9.06795 310.696 6.74396 314.097 6.74396C317.344 6.74396 319.772 7.9395 322.289 10.6112L326.421 5.62161C323.103 2.31556 320.143 0.558838 314.244 0.558838C306.487 0.558838 300.441 5.90219 300.441 11.8128C300.441 18.2053 303.317 22.0055 313.943 26.4339C318.523 28.398 322.878 30.9294 322.878 36.0653C322.878 40.7743 319.183 44.9953 313.873 44.9953Z" fill="white"/>
<path d="M378.637 44.9953C372.584 44.9953 368.817 41.1281 365.794 36.4862L361.656 41.6222C363.283 44.2938 368.452 51.1804 378.489 51.1804C388.751 51.1804 394.733 43.2325 394.733 35.7847C394.733 26.8547 388.232 22.9875 379.45 19.4009C374.576 17.4307 372.289 15.1799 372.289 11.947C372.289 9.06795 375.46 6.74396 378.861 6.74396C382.108 6.74396 384.542 7.9395 387.053 10.6112L391.185 5.62161C387.867 2.31556 384.914 0.558838 379.008 0.558838C371.251 0.558838 365.198 5.90219 365.198 11.8128C365.198 18.2053 368.081 22.0055 378.707 26.4339C383.287 28.398 387.643 30.9294 387.643 36.0653C387.643 40.7743 383.953 44.9953 378.637 44.9953Z" fill="white"/>
<path d="M433.805 43.5886H459.202L462.456 50.6216H470.13L446.507 0L422.878 50.6216H430.558L433.805 43.5886ZM446.507 15.7434L456.397 37.4035H436.611L446.507 15.7434Z" fill="white"/>
<path d="M538.619 25.7465C538.619 12.0344 529.389 1 512.12 1H502V50.4931H512.12C529.024 50.4931 538.619 39.4526 538.619 25.7465ZM509.091 7.18511H513.222C523.708 7.18511 531.535 15.4807 531.535 25.7465C531.535 36.0063 523.708 44.308 513.222 44.308H509.091V7.18511Z" fill="white"/>
<path d="M596.718 51.1804C611.411 51.1804 623.3 39.8593 623.3 25.8727C623.3 11.8799 611.411 0.558838 596.718 0.558838C582.03 0.558838 570.142 11.8799 570.142 25.8727C570.142 39.8593 582.03 51.1804 596.718 51.1804ZM596.718 6.74396C607.575 6.74396 616.215 15.2592 616.215 25.8727C616.215 36.4862 607.575 44.9953 596.718 44.9953C585.874 44.9953 577.226 36.4862 577.226 25.8727C577.226 15.2592 585.874 6.74396 596.718 6.74396Z" fill="white"/>
<path d="M663.859 33.7424H667.254C667.843 33.7424 668.362 33.7424 668.951 33.6753L678.034 50.6203H686.303L675.817 31.9857C681.723 29.2469 685.118 23.69 685.118 17.4317C685.118 8.50785 679.142 1.1272 666.216 1.1272H656.768V50.6203H663.859V33.7424ZM663.859 7.31231H667.036C672.198 7.31231 678.034 10.2646 678.034 17.4317C678.034 23.8974 672.64 27.5634 667.478 27.5634H663.859V7.31231Z" fill="white"/>
<path d="M743.688 23.3611C743.688 20.3784 741.964 17.5115 738.992 16.6758C740.844 15.6816 742.406 13.7663 742.406 11.2471C742.406 6.6235 738.749 4.21411 732.651 4.21411H727.636V31.1139H734.297C739.96 31.1139 743.688 27.9786 743.688 23.3611ZM731.492 7.58116H733.176C736.552 7.58116 738.55 8.91699 738.55 11.3203C738.55 13.687 736.552 15.3705 733.176 15.3705H731.492V7.58116ZM731.492 27.7529V18.7375H733.74C737.353 18.7375 739.755 20.3357 739.755 23.3916C739.755 26.4171 737.353 27.7529 733.74 27.7529H731.492Z" fill="white"/>
<path d="M768.591 31.1139H772.447V20.2198L782.074 4.21411H777.738L770.519 16.5599L763.294 4.21411H758.964L768.591 20.2198V31.1139Z" fill="white"/>
<path d="M783.227 46.9436H725.125V50.6212H783.227V46.9436Z" fill="white"/>
</svg>
