<svg width="197" height="21" viewBox="0 0 197 21" fill="none" xmlns="http://www.w3.org/2000/svg">
<path d="M25.0574 5.66453L27.2647 11.5208L22.7687 11.5203L25.0574 5.66453ZM19.8883 16L21.0563 16.0001L22.4326 12.4483L27.6326 12.4488L29.0243 16.0009L30.1923 16.0011L25.7135 4.5766L24.4975 4.57647L19.8883 16ZM31.0384 16.0012L32.0464 16.0013L32.0469 11.3933C32.0471 9.66527 32.7832 8.35335 34.5112 8.35353C35.8072 8.35366 36.2391 9.28171 36.239 10.4017L36.2384 16.0017L37.2464 16.0018L37.2469 11.3298C37.247 9.79382 37.7432 8.35387 39.4872 8.35405C40.9432 8.3542 41.4391 9.09026 41.439 10.4503L41.4384 16.0023L42.4464 16.0024L42.447 10.4024C42.4472 8.46636 41.5353 7.50627 39.7113 7.50607C38.6233 7.50596 37.5832 8.03385 37.0871 9.1218C36.7832 8.03377 35.8073 7.50566 34.7193 7.50555C33.3913 7.50541 32.5432 8.12932 32.0151 9.13726L31.9671 9.13726L31.9673 7.74526L31.0393 7.74516L31.0384 16.0012ZM44.3665 16.0026L45.2945 16.0027L45.2947 14.4347L45.3267 14.4347C45.7906 15.5707 46.9265 16.2428 48.2705 16.243C50.7825 16.2432 51.9827 14.2274 51.983 11.8754C51.9832 9.52337 50.7834 7.50724 48.2714 7.50698C47.0554 7.50685 45.8233 8.13072 45.4072 9.31467L45.3752 9.31467L45.3757 4.57867L44.3677 4.57856L44.3665 16.0026ZM50.975 11.8753C50.9748 13.5873 50.1906 15.3952 48.2706 15.395C46.1426 15.3948 45.3748 13.5867 45.375 11.8747C45.3751 10.1627 46.1433 8.35475 48.2713 8.35498C50.1913 8.35518 50.9751 10.1633 50.975 11.8753ZM54.4666 10.2756C54.5148 8.93163 55.4108 8.35573 56.6748 8.35586C57.8748 8.35599 58.8348 8.69209 58.8346 10.0521C58.8346 10.9481 58.3705 11.092 57.5385 11.172C55.3625 11.4277 53.1065 11.5235 53.1062 13.8275C53.1061 15.4915 54.338 16.2436 55.874 16.2438C57.474 16.2439 58.1621 15.636 58.8822 14.5641L58.9142 14.5641C58.9141 15.4121 59.074 16.0041 60.098 16.0042C60.37 16.0042 60.514 15.9883 60.754 15.9403L60.7541 15.0923C60.6421 15.1403 60.5461 15.1563 60.4341 15.1563C60.0341 15.1562 59.8421 14.9482 59.8422 14.5482L59.8426 10.1642C59.8429 7.94019 58.2589 7.50803 56.8029 7.50787C54.8989 7.50767 53.5708 8.33953 53.4586 10.2755L54.4666 10.2756ZM58.8344 12.8041C58.8342 14.4201 57.5061 15.3959 55.9541 15.3958C54.9941 15.3957 54.1141 14.7716 54.1143 13.7636C54.1144 12.1636 56.2424 12.1638 57.9545 11.86C58.2265 11.812 58.6745 11.7321 58.8025 11.4921L58.8345 11.4921L58.8344 12.8041ZM67.8035 10.165C67.7237 8.37302 66.4438 7.50889 64.7798 7.50871C63.3238 7.50856 61.6757 8.14839 61.6755 9.82839C61.6754 11.2204 62.6673 11.7005 63.9793 12.0366L65.2753 12.3248C66.1873 12.5489 67.0832 12.869 67.0831 13.829C67.083 14.981 65.787 15.3968 64.827 15.3967C63.483 15.3966 62.475 14.6925 62.3952 13.3325L61.3872 13.3324C61.563 15.3644 62.8429 16.2445 64.7789 16.2447C66.3149 16.2449 68.0909 15.5571 68.0911 13.7651C68.0913 12.3251 66.8914 11.6529 65.7394 11.4768L64.3954 11.1727C63.6914 10.9966 62.6835 10.6605 62.6835 9.78049C62.6837 8.70849 63.7397 8.3566 64.6357 8.3567C65.7877 8.35682 66.7476 8.91692 66.7955 10.1649L67.8035 10.165ZM75.5066 10.1658C75.4268 8.37383 74.1469 7.5097 72.4829 7.50952C71.0269 7.50937 69.3788 8.1492 69.3787 9.8292C69.3785 11.2212 70.3705 11.7013 71.6824 12.0374L72.9784 12.3256C73.8904 12.5497 74.7863 12.8698 74.7862 13.8298C74.7861 14.9818 73.4901 15.3976 72.5301 15.3975C71.1861 15.3974 70.1782 14.6933 70.0983 13.3333L69.0903 13.3332C69.2661 15.3652 70.546 16.2453 72.482 16.2455C74.018 16.2457 75.7941 15.5579 75.7943 13.7659C75.7944 12.3259 74.5945 11.6537 73.4425 11.4776L72.0985 11.1735C71.3945 10.9974 70.3866 10.6613 70.3867 9.7813C70.3868 8.7093 71.4428 8.35742 72.3388 8.35751C73.4908 8.35763 74.4508 8.91773 74.4986 10.1657L75.5066 10.1658ZM78.1697 10.2781C78.2179 8.93413 79.1139 8.35822 80.3779 8.35836C81.5779 8.35848 82.5379 8.69458 82.5378 10.0546C82.5377 10.9506 82.0737 11.0945 81.2417 11.1744C79.0656 11.4302 76.8096 11.526 76.8094 13.83C76.8092 15.494 78.0411 16.2461 79.5771 16.2463C81.1771 16.2464 81.8652 15.6385 82.5853 14.5666L82.6173 14.5666C82.6172 15.4146 82.7771 16.0066 83.8011 16.0067C84.0731 16.0067 84.2171 15.9908 84.4572 15.9428L84.4572 15.0948C84.3452 15.1428 84.2492 15.1588 84.1372 15.1588C83.7372 15.1587 83.5453 14.9507 83.5453 14.5507L83.5458 10.1667C83.546 7.94269 81.962 7.51052 80.506 7.51037C78.602 7.51017 77.274 8.34203 77.1617 10.278L78.1697 10.2781ZM82.5375 12.8066C82.5373 14.4226 81.2092 15.3984 79.6572 15.3983C78.6972 15.3982 77.8173 14.7741 77.8174 13.7661C77.8175 12.1661 79.9455 12.1663 81.6576 11.8625C81.9296 11.8145 82.3776 11.7346 82.5056 11.4946L82.5376 11.4946L82.5375 12.8066ZM92.8192 4.58367L91.8112 4.58356L91.8107 9.31956L91.7787 9.31956C91.3628 8.13551 90.1309 7.51138 88.9149 7.51125C86.4029 7.51099 85.2027 9.52686 85.2025 11.8789C85.2022 14.2309 86.402 16.247 88.914 16.2473C90.114 16.2474 91.4261 15.5275 91.8582 14.4396L91.8902 14.4396L91.89 16.0076L92.818 16.0077L92.8192 4.58367ZM86.2105 11.879C86.2106 10.167 86.9948 8.35905 88.9148 8.35925C91.0428 8.35948 91.8106 10.1676 91.8105 11.8796C91.8103 13.5916 91.0421 15.3995 88.9141 15.3993C86.9941 15.3991 86.2103 13.591 86.2105 11.879ZM98.2303 8.36024C100.15 8.36044 101.126 10.1365 101.126 11.8805C101.126 13.6245 100.15 15.4004 98.2296 15.4002C96.3096 15.4 95.3338 13.6239 95.334 11.8799C95.3341 10.1359 96.3103 8.36003 98.2303 8.36024ZM98.2304 7.51224C95.7184 7.51197 94.3262 9.51182 94.326 11.8798C94.3257 14.2478 95.7175 16.248 98.2295 16.2482C100.741 16.2485 102.134 14.2486 102.134 11.8806C102.134 9.51265 100.742 7.5125 98.2304 7.51224ZM103.632 16.0088L104.64 16.0089L104.641 11.6089C104.641 9.88091 105.889 8.56904 107.713 8.64923L107.713 7.64123C106.225 7.57708 105.105 8.34496 104.593 9.68891L104.561 9.6889L104.561 7.7529L103.633 7.7528L103.632 16.0088ZM115.719 18.0101L115.719 17.2101L107.719 17.2092L107.719 18.0092L115.719 18.0101ZM116.679 16.0102L117.607 16.0103L117.607 14.4423L117.639 14.4423C118.103 15.5783 119.239 16.2504 120.583 16.2506C123.095 16.2509 124.295 14.235 124.295 11.883C124.296 9.53098 123.096 7.51485 120.584 7.51459C119.368 7.51446 118.136 8.13833 117.72 9.32229L117.688 9.32228L117.688 4.58628L116.68 4.58618L116.679 16.0102ZM123.287 11.8829C123.287 13.5949 122.503 15.4028 120.583 15.4026C118.455 15.4024 117.687 13.5943 117.687 11.8823C117.688 10.1703 118.456 8.36236 120.584 8.36259C122.504 8.36279 123.288 10.1709 123.287 11.8829ZM128.235 15.9794L127.882 16.9234C127.546 17.6913 127.338 18.2193 126.442 18.2192C126.202 18.2192 125.994 18.1872 125.754 18.1391L125.754 18.9871C125.93 19.0512 126.122 19.0512 126.522 19.0672C127.786 19.0673 128.106 18.6674 128.698 17.2754L132.283 7.75582L131.275 7.75571L128.731 14.7954L126.011 7.75516L124.939 7.75505L128.235 15.9794ZM134.185 10.284C134.234 8.94003 135.13 8.36412 136.394 8.36425C137.594 8.36438 138.554 8.70048 138.553 10.0605C138.553 10.9565 138.089 11.1004 137.257 11.1803C135.081 11.4361 132.825 11.5319 132.825 13.8359C132.825 15.4999 134.057 16.252 135.593 16.2522C137.193 16.2523 137.881 15.6444 138.601 14.5725L138.633 14.5725C138.633 15.4205 138.793 16.0125 139.817 16.0126C140.089 16.0126 140.233 15.9967 140.473 15.9487L140.473 15.1007C140.361 15.1487 140.265 15.1647 140.153 15.1646C139.753 15.1646 139.561 14.9566 139.561 14.5566L139.561 10.1726C139.562 7.94859 137.978 7.51642 136.522 7.51627C134.618 7.51607 133.29 8.34793 133.177 10.2839L134.185 10.284ZM138.553 12.8125C138.553 14.4285 137.225 15.4043 135.673 15.4042C134.713 15.4041 133.833 14.78 133.833 13.772C133.833 12.172 135.961 12.1722 137.673 11.8684C137.945 11.8204 138.393 11.7405 138.521 11.5005L138.553 11.5005L138.553 12.8125ZM141.586 16.0128L142.594 16.0129L142.595 4.58891L141.587 4.5888L141.586 16.0128ZM144.523 16.0131L145.531 16.0132L145.531 12.8772L147.163 11.5174L150.427 16.0137L151.691 16.0139L147.931 10.8135L151.452 7.75784L150.108 7.7577L145.531 11.7572L145.532 4.58921L144.524 4.58911L144.523 16.0131ZM156.012 8.36632C157.932 8.36652 158.907 10.1426 158.907 11.8866C158.907 13.6306 157.931 15.4065 156.011 15.4063C154.091 15.4061 153.115 13.63 153.115 11.886C153.115 10.142 154.092 8.36612 156.012 8.36632ZM156.012 7.51832C153.5 7.51805 152.107 9.51791 152.107 11.8859C152.107 14.2539 153.499 16.2541 156.011 16.2543C158.523 16.2546 159.915 14.2547 159.915 11.8867C159.915 9.51873 158.524 7.51858 156.012 7.51832ZM163.015 5.27906L162.007 5.27895L162.006 7.75895L160.566 7.7588L160.566 8.6068L162.006 8.60695L162.006 14.2549C161.989 15.6629 162.453 16.111 163.797 16.1111C164.101 16.1112 164.389 16.0792 164.693 16.0792L164.693 15.2152C164.405 15.2472 164.117 15.2632 163.829 15.2631C163.109 15.2151 163.014 14.8311 163.014 14.1751L163.014 8.60705L164.694 8.60723L164.694 7.75923L163.014 7.75905L163.015 5.27906ZM166.74 11.3114C166.916 9.80747 167.797 8.36756 169.461 8.36773C171.077 8.3679 172.036 9.792 172.084 11.312L166.74 11.3114ZM173.092 12.1601C173.172 9.84012 172.101 7.52001 169.461 7.51973C166.837 7.51946 165.732 9.71134 165.732 11.8873C165.732 14.2393 166.836 16.2555 169.46 16.2557C171.556 16.256 172.628 15.1681 173.06 13.2961L172.052 13.296C171.732 14.56 170.932 15.4079 169.46 15.4077C167.54 15.4075 166.74 13.6314 166.74 12.1594L173.092 12.1601ZM174.445 16.0163L175.453 16.0164L175.453 12.8804L177.085 11.5205L180.349 16.0169L181.613 16.017L177.853 10.8166L181.374 7.76099L180.03 7.76085L175.453 11.7604L175.454 4.59236L174.446 4.59226L174.445 16.0163ZM183.357 10.2892C183.405 8.9452 184.301 8.3693 185.565 8.36943C186.765 8.36956 187.725 8.70566 187.725 10.0657C187.725 10.9617 187.261 11.1056 186.429 11.1855C184.253 11.4413 181.997 11.5371 181.997 13.8411C181.997 15.5051 183.229 16.2572 184.765 16.2573C186.365 16.2575 187.053 15.6496 187.773 14.5777L187.805 14.5777C187.805 15.4257 187.965 16.0177 188.989 16.0178C189.261 16.0178 189.405 16.0018 189.645 15.9539L189.645 15.1059C189.533 15.1538 189.437 15.1698 189.325 15.1698C188.925 15.1698 188.733 14.9618 188.733 14.5618L188.733 10.1778C188.733 7.95376 187.15 7.5216 185.694 7.52144C183.79 7.52124 182.461 8.3531 182.349 10.2891L183.357 10.2892ZM187.725 12.8177C187.725 14.4337 186.397 15.4095 184.845 15.4094C183.885 15.4093 183.005 14.7852 183.005 13.7772C183.005 12.1772 185.133 12.1774 186.845 11.8736C187.117 11.8256 187.565 11.7456 187.693 11.5057L187.725 11.5057L187.725 12.8177Z" fill="white"/>
<path d="M10 6.5H5C3.61929 6.5 2.5 7.61929 2.5 9V14C2.5 15.3807 3.61929 16.5 5 16.5H10C11.3807 16.5 12.5 15.3807 12.5 14V9C12.5 7.61929 11.3807 6.5 10 6.5Z" stroke="white" stroke-linecap="round" stroke-linejoin="round"/>
<path d="M7.5 13.375C8.53553 13.375 9.375 12.5355 9.375 11.5C9.375 10.4645 8.53553 9.625 7.5 9.625C6.46447 9.625 5.625 10.4645 5.625 11.5C5.625 12.5355 6.46447 13.375 7.5 13.375Z" stroke="white" stroke-linecap="round" stroke-linejoin="round"/>
<path d="M10.3125 8.6875V8.68908" stroke="white" stroke-linecap="round" stroke-linejoin="round"/>
</svg>
