<svg width="15" height="15" viewBox="0 0 15 15" fill="none" xmlns="http://www.w3.org/2000/svg">
<path d="M10 2.5H5C3.61929 2.5 2.5 3.61929 2.5 5V10C2.5 11.3807 3.61929 12.5 5 12.5H10C11.3807 12.5 12.5 11.3807 12.5 10V5C12.5 3.61929 11.3807 2.5 10 2.5Z" stroke="white" stroke-linecap="round" stroke-linejoin="round"/>
<path d="M7.5 9.375C8.53553 9.375 9.375 8.53553 9.375 7.5C9.375 6.46447 8.53553 5.625 7.5 5.625C6.46447 5.625 5.625 6.46447 5.625 7.5C5.625 8.53553 6.46447 9.375 7.5 9.375Z" stroke="white" stroke-linecap="round" stroke-linejoin="round"/>
<path d="M10.3125 4.6875V4.68908" stroke="white" stroke-linecap="round" stroke-linejoin="round"/>
</svg>
