<svg width="45" height="65" viewBox="0 0 45 65" fill="none" xmlns="http://www.w3.org/2000/svg">
<path d="M45 24.3999C45 40.1911 26.1161 43.6031 23.3036 65C17.2768 40.6001 0 40.1911 0 24.3999C0 8.60877 9.85169 0 22.5 0C35.1483 0 45 8.60877 45 24.3999Z" fill="#252525"/>
<path d="M36.6693 24.3171H34.529V22.1967C34.529 21.2965 34.2108 20.568 33.5803 20.0112C32.9472 19.4549 31.9411 19.1767 30.558 19.1767C29.1749 19.1767 28.1068 19.4998 27.3548 20.1492C26.6048 20.7964 26.1991 21.7694 26.1396 23.066H26.9887C27.046 22.0138 27.3923 21.2286 28.0255 20.7081C28.6565 20.1898 29.4858 19.932 30.5116 19.932C31.0921 19.932 31.5839 19.993 31.9855 20.1133C32.3871 20.2353 32.713 20.4049 32.967 20.6177C33.2184 20.8306 33.4061 21.0751 33.525 21.3505C33.6439 21.6244 33.7039 21.9207 33.7039 22.2422C33.7039 22.6541 33.6815 22.998 33.6351 23.2713C33.5913 23.5452 33.4786 23.7715 33.3023 23.9459C33.1459 24.1004 32.9201 24.2229 32.6337 24.3171H21.7556L18.895 16H16.9716L13.6641 24.3171H9V28.6203H11.9519L11.4788 29.8099L9.73171 30.3031V31.2108H15.2751V30.2763L13.2745 29.7313L13.6745 28.6203H20.288L20.6667 29.8623L18.9967 30.3031V31.2108H25.2728V30.2763L23.6535 29.835L23.2352 28.6203H25.5612C25.6405 29.5205 25.966 30.2063 26.5412 30.6748C27.2119 31.2151 28.1559 31.4868 29.3757 31.4868C29.9249 31.4868 30.4303 31.4162 30.8908 31.2809C31.3518 31.1429 31.7643 30.9524 32.131 30.708C32.4945 30.4641 32.8038 30.1859 33.0551 29.8735C33.3086 29.5617 33.5026 29.2285 33.6351 28.8781H33.6815V29.4959C33.6815 29.7404 33.6992 29.9639 33.7368 30.1699C33.7743 30.3758 33.8447 30.5566 33.9485 30.708C34.0523 30.8599 34.2046 30.9818 34.4049 31.0749C34.6056 31.1653 34.8774 31.2108 35.2195 31.2108C35.4578 31.2108 35.6889 31.1814 35.9116 31.1199V30.387C35.643 30.432 35.4354 30.4571 35.2873 30.4571C35.0933 30.4571 34.9436 30.4143 34.8398 30.3303C34.736 30.2469 34.6609 30.1362 34.6171 29.9976C34.5728 29.8623 34.5467 29.7083 34.5399 29.5408C34.5311 29.3734 34.529 29.206 34.529 29.0386V28.6203H37V24.3171H36.6693ZM17.1985 18.9071H17.3247L18.9691 24.3171H15.2396L17.1985 18.9071ZM32.9889 28.9573C32.6911 29.4232 32.2608 29.835 31.6939 30.1929C31.1296 30.5523 30.364 30.731 29.3976 30.731C28.4599 30.731 27.7235 30.5202 27.1895 30.1019C26.7514 29.7585 26.4963 29.2638 26.4166 28.6203H33.1855C33.1261 28.7315 33.0619 28.8433 32.9889 28.9573ZM36.6693 28.2812H9.33117V24.6567H36.6693V28.2812Z" fill="white"/>
<path d="M10.6437 27.1086H11.4693L11.5752 27.3546H11.8239L11.0563 25.5825L10.2886 27.3546H10.5379L10.6437 27.1086ZM11.0563 26.1335L11.378 26.8919H10.7345L11.0563 26.1335Z" fill="white"/>
<path d="M13.085 26.2271L13.5846 26.8427L14.0832 26.2271V27.3546H14.3137V25.5825L13.5846 26.4881L12.8545 25.5825V27.3546H13.085V26.2271Z" fill="white"/>
<path d="M16.4582 26.8551C16.4582 26.6631 16.3549 26.4785 16.1776 26.4245C16.2882 26.3603 16.3815 26.2372 16.3815 26.0746C16.3815 25.7767 16.163 25.6221 15.7985 25.6221H15.498V27.3547H15.8965C16.235 27.3547 16.4582 27.1531 16.4582 26.8551ZM15.7286 25.8382H15.8292C16.0311 25.8382 16.151 25.9248 16.151 26.0794C16.151 26.2324 16.0311 26.3405 15.8292 26.3405H15.7286V25.8382ZM15.7286 27.1381V26.5571H15.8631C16.079 26.5571 16.223 26.6609 16.223 26.8572C16.223 27.052 16.079 27.1381 15.8631 27.1381H15.7286Z" fill="white"/>
<path d="M17.8049 27.1086H18.6304L18.7363 27.3546H18.9856L18.2179 25.5825L17.4497 27.3546H17.6995L17.8049 27.1086ZM18.2179 26.1335L18.5392 26.8919H17.8961L18.2179 26.1335Z" fill="white"/>
<path d="M20.4912 27.1578C20.2946 27.1578 20.1721 27.0224 20.0735 26.8598L19.9395 27.0396C19.9921 27.1332 20.1601 27.3744 20.4865 27.3744C20.8198 27.3744 21.0143 27.0963 21.0143 26.8352C21.0143 26.5223 20.8031 26.387 20.5178 26.2618C20.3593 26.1928 20.2847 26.1142 20.2847 26.0008C20.2847 25.8997 20.388 25.8189 20.4985 25.8189C20.6044 25.8189 20.6832 25.8606 20.765 25.9543L20.8996 25.7793C20.7911 25.6638 20.6952 25.6023 20.5032 25.6023C20.2513 25.6023 20.0547 25.789 20.0547 25.996C20.0547 26.2196 20.1481 26.3528 20.4938 26.5079C20.6425 26.5769 20.7838 26.6651 20.7838 26.8454C20.7838 27.0101 20.6639 27.1578 20.4912 27.1578Z" fill="white"/>
<path d="M22.5967 27.1578C22.4001 27.1578 22.2775 27.0224 22.179 26.8598L22.0449 27.0396C22.0976 27.1332 22.2655 27.3744 22.592 27.3744C22.9253 27.3744 23.1198 27.0963 23.1198 26.8352C23.1198 26.5223 22.9086 26.387 22.6233 26.2618C22.4648 26.1928 22.3902 26.1142 22.3902 26.0008C22.3902 25.8997 22.4934 25.8189 22.604 25.8189C22.7093 25.8189 22.7886 25.8606 22.87 25.9543L23.0051 25.7793C22.8966 25.6638 22.8006 25.6023 22.6087 25.6023C22.3568 25.6023 22.1597 25.789 22.1597 25.996C22.1597 26.2196 22.2535 26.3528 22.5993 26.5079C22.7479 26.5769 22.8893 26.6651 22.8893 26.8454C22.8893 27.0101 22.7693 27.1578 22.5967 27.1578Z" fill="white"/>
<path d="M24.3903 27.1086H25.2159L25.3218 27.3546H25.5706L24.8029 25.5825L24.0352 27.3546H24.2845L24.3903 27.1086ZM24.8029 26.1335L25.1247 26.8919H24.4811L24.8029 26.1335Z" fill="white"/>
<path d="M27.7917 26.4881C27.7917 26.0083 27.4918 25.6221 26.9302 25.6221H26.6011V27.3547H26.9302C27.4798 27.3547 27.7917 26.9685 27.7917 26.4881ZM26.8316 25.8382H26.9661C27.3072 25.8382 27.5612 26.1287 27.5612 26.4881C27.5612 26.8476 27.3072 27.1381 26.9661 27.1381H26.8316V25.8382Z" fill="white"/>
<path d="M29.6859 27.3744C30.1636 27.3744 30.5501 26.978 30.5501 26.4881C30.5501 25.9981 30.1636 25.6023 29.6859 25.6023C29.2082 25.6023 28.8223 25.9981 28.8223 26.4881C28.8223 26.978 29.2082 27.3744 29.6859 27.3744ZM29.6859 25.8189C30.039 25.8189 30.3196 26.1163 30.3196 26.4881C30.3196 26.8598 30.039 27.1578 29.6859 27.1578C29.3334 27.1578 29.0523 26.8598 29.0523 26.4881C29.0523 26.1163 29.3334 25.8189 29.6859 25.8189Z" fill="white"/>
<path d="M31.8687 26.7643H31.9787L32.034 26.7616L32.3292 27.3548H32.5983L32.2573 26.7028C32.4492 26.6065 32.5597 26.4118 32.5597 26.1931C32.5597 25.8807 32.3652 25.6218 31.9454 25.6218H31.6382V27.3548H31.8687V26.7643ZM31.8687 25.8384H31.972C32.1399 25.8384 32.3292 25.9422 32.3292 26.1931C32.3292 26.4198 32.154 26.5477 31.9861 26.5477H31.8687V25.8384Z" fill="white"/>
<path d="M34.4634 26.4008C34.4634 26.2959 34.4081 26.1959 34.3111 26.1665C34.3711 26.1317 34.4222 26.0648 34.4222 25.9765C34.4222 25.8145 34.3033 25.7305 34.1051 25.7305H33.9424V26.672H34.1583C34.3424 26.672 34.4634 26.5623 34.4634 26.4008ZM34.067 25.8482H34.1218C34.2313 25.8482 34.2965 25.8947 34.2965 25.9792C34.2965 26.0621 34.2313 26.121 34.1218 26.121H34.067V25.8482ZM34.067 26.5543V26.2387H34.1401C34.2574 26.2387 34.3362 26.2948 34.3362 26.4018C34.3362 26.5078 34.2574 26.5543 34.1401 26.5543H34.067Z" fill="white"/>
<path d="M35.2734 26.672H35.3985V26.2906L35.7114 25.7305H35.5706L35.3359 26.1622L35.1013 25.7305H34.9604L35.2734 26.2906V26.672Z" fill="white"/>
<path d="M33.8604 27.3548H35.7488V27.2261H33.8604V27.3548Z" fill="white"/>
</svg>
